# xmcd
#
# Track frame offsets: 
#        150
#        18914
#        39331
#        58567
#        78073
#        94505
#        114211
#        131237
#        151760
#        165530
#        186380
#        205128
#        220536
#
# Disc length: 3165 seconds
#
# Revision: 0
# Processed by: cddbd v1.5.1PL2 Copyright (c) Steve Scherf et al.
# Submitted via: ExactAudioCopy v0.95b3
#
DISCID=970c5b0d
DTITLE=Little Big Town - The Road To Here
DYEAR=2005
DGENRE=Country
TTITLE0=Good As Gone
TTITLE1=Boondocks
TTITLE2=Bones
TTITLE3=Bring It On Home
TTITLE4=Wounded
TTITLE5=A Little More You
TTITLE6=Live With Lonesome
TTITLE7=Mean Streak
TTITLE8=Looking For A Reason
TTITLE9=Lost
TTITLE10=Welcome To The Family
TTITLE11=Fine WIth Me
TTITLE12=Stay (Acoustic)
EXTD=
EXTT0=
EXTT1=
EXTT2=
EXTT3=
EXTT4=
EXTT5=
EXTT6=
EXTT7=
EXTT8=
EXTT9=
EXTT10=
EXTT11=
EXTT12=
PLAYORDER=
